<?xml version="1.0" encoding="UTF-8"?>
<svg width="280" height="350" xmlns="http://www.w3.org/2000/svg">
  <!-- Torso base -->
  <path d="M 70 50 Q 140 30 210 50 L 220 200 Q 200 250 180 300 L 100 300 Q 80 250 60 200 Z" 
        fill="#3b82f6" stroke="#1e40af" stroke-width="2"/>
  
  <!-- Shirt collar -->
  <path d="M 100 50 Q 120 40 140 50 L 140 80 Q 120 70 100 80 Z" 
        fill="#1e40af" stroke="#1e3a8a" stroke-width="1"/>
  
  <!-- Shirt buttons -->
  <circle cx="140" r="4" cy="100" fill="#f8fafc" stroke="#64748b" stroke-width="1"/>
  <circle cx="140" r="4" cy="130" fill="#f8fafc" stroke="#64748b" stroke-width="1"/>
  <circle cx="140" r="4" cy="160" fill="#f8fafc" stroke="#64748b" stroke-width="1"/>
  <circle cx="140" r="4" cy="190" fill="#f8fafc" stroke="#64748b" stroke-width="1"/>
  
  <!-- Shirt pocket -->
  <rect x="90" y="110" width="30" height="25" fill="#2563eb" stroke="#1e40af" stroke-width="1"/>
  
  <!-- Chest definition -->
  <ellipse cx="110" cy="120" rx="25" ry="15" fill="#60a5fa" opacity="0.3"/>
  <ellipse cx="170" cy="120" rx="25" ry="15" fill="#60a5fa" opacity="0.3"/>
  
  <!-- Waist -->
  <path d="M 80 220 Q 140 210 200 220" stroke="#1e40af" stroke-width="2" fill="none"/>
  
  <!-- Shirt hem -->
  <path d="M 100 300 Q 140 290 180 300" stroke="#1e40af" stroke-width="2" fill="none"/>
</svg>